<mxfile host="65bd71144e">
    <diagram id="S6CY22o_zzviNTXMN36v" name="Page-1">
        <mxGraphModel dx="1626" dy="521" grid="1" gridSize="10" guides="1" tooltips="1" connect="1" arrows="1" fold="1" page="1" pageScale="1" pageWidth="850" pageHeight="1100" math="0" shadow="0">
            <root>
                <mxCell id="0"/>
                <mxCell id="1" parent="0"/>
                <mxCell id="4" value="" style="swimlane;startSize=0;" parent="1" vertex="1">
                    <mxGeometry x="410" y="70" width="530" height="210" as="geometry"/>
                </mxCell>
                <mxCell id="9" style="edgeStyle=none;html=1;" parent="4" source="2" target="3" edge="1">
                    <mxGeometry relative="1" as="geometry"/>
                </mxCell>
                <mxCell id="2" value="Generateur de sequence" style="rounded=0;whiteSpace=wrap;html=1;" parent="4" vertex="1">
                    <mxGeometry x="20" y="70" width="120" height="60" as="geometry"/>
                </mxCell>
                <mxCell id="13" style="edgeStyle=none;html=1;entryX=0;entryY=0.5;entryDx=0;entryDy=0;" parent="4" source="3" target="11" edge="1">
                    <mxGeometry relative="1" as="geometry"/>
                </mxCell>
                <mxCell id="3" value="Controlleur d'animation" style="rounded=0;whiteSpace=wrap;html=1;" parent="4" vertex="1">
                    <mxGeometry x="210" y="70" width="120" height="60" as="geometry"/>
                </mxCell>
                <mxCell id="11" value="Scne 2D d'architecture" style="rounded=0;whiteSpace=wrap;html=1;" parent="4" vertex="1">
                    <mxGeometry x="390" y="70" width="120" height="60" as="geometry"/>
                </mxCell>
                <mxCell id="8" style="edgeStyle=none;html=1;" parent="1" source="7" target="2" edge="1">
                    <mxGeometry relative="1" as="geometry"/>
                </mxCell>
                <mxCell id="7" value="Emulateur" style="rounded=0;whiteSpace=wrap;html=1;" parent="1" vertex="1">
                    <mxGeometry x="140" y="140" width="70" height="60" as="geometry"/>
                </mxCell>
                <mxCell id="10" value="Informations" style="text;html=1;align=center;verticalAlign=middle;resizable=0;points=[];autosize=1;strokeColor=none;fillColor=none;" parent="1" vertex="1">
                    <mxGeometry x="260" y="140" width="90" height="30" as="geometry"/>
                </mxCell>
            </root>
        </mxGraphModel>
    </diagram>
</mxfile>